# xmcd
#
# Track frame offsets: 
#        150
#        20160
#        36535
#        51185
#        65492
#        77865
#        91692
#        103435
#        120277
#        134902
#
# Disc length: 2234 seconds
#
# Revision: 0
# Processed by: cddbd v1.5.2PL0 Copyright (c) Steve Scherf et al.
# Submitted via: ExactAudioCopy v0.99pb5
#
DISCID=9108b80a
DTITLE=Troy Brooks - Peppermint Garden
DYEAR=2001
DGENRE=Rock
TTITLE0=The Raven and the Carwash
TTITLE1=Duchess in the Penny Arcade
TTITLE2=One O'Clock Love Song
TTITLE3=Diamond Joe
TTITLE4=The Briar Patch
TTITLE5=Black Eyed Susan
TTITLE6=Of Nina's Pink
TTITLE7=Dear Ingrid
TTITLE8=Hazy Jane
TTITLE9=Peppermint Garden
EXTD=
EXTT0=
EXTT1=
EXTT2=
EXTT3=
EXTT4=
EXTT5=
EXTT6=
EXTT7=
EXTT8=
EXTT9=
PLAYORDER=
